<?xml version="1.0" encoding="UTF-8" standalone="no"?>
<!DOCTYPE svg PUBLIC "-//W3C//DTD SVG 1.1//EN" "http://www.w3.org/Graphics/SVG/1.1/DTD/svg11.dtd">
<svg width="100%" height="100%" viewBox="0 0 100 100" version="1.1" xmlns="http://www.w3.org/2000/svg" xmlns:xlink="http://www.w3.org/1999/xlink" xml:space="preserve" xmlns:serif="http://www.serif.com/" style="fill-rule:evenodd;clip-rule:evenodd;stroke-linejoin:round;stroke-miterlimit:2;">
    <g transform="matrix(1,0,0,1,-0.793651,-0.617284)">
        <rect x="20.018" y="19.841" width="61.552" height="61.552"/>
    </g>
    <g transform="matrix(1,0,0,1,-0.462963,0.242504)">
        <rect x="22.31" y="21.605" width="56.305" height="56.305" style="fill:rgb(196,196,196);"/>
    </g>
    <rect x="24.339" y="6.349" width="4.938" height="13.051"/>
    <g transform="matrix(1,0,0,1,47.3545,-0.176367)">
        <rect x="24.339" y="6.349" width="4.938" height="13.051"/>
    </g>
    <g transform="matrix(1,0,0,1,47.3545,74.4268)">
        <rect x="24.339" y="6.349" width="4.938" height="13.051"/>
    </g>
    <g transform="matrix(1,0,0,1,0,74.4268)">
        <rect x="24.339" y="6.349" width="4.938" height="13.051"/>
    </g>
    <g transform="matrix(1,0,0,1,-7.62787,-6.21693)">
        <circle cx="57.628" cy="56.217" r="11.949"/>
    </g>
    <g transform="matrix(1,0,0,1,-4.05644,-1.5873)">
        <circle cx="31.856" cy="29.123" r="2.579"/>
    </g>
    <g transform="matrix(1,0,0,1,-4.05644,43.1217)">
        <circle cx="31.856" cy="29.123" r="2.579"/>
    </g>
    <g transform="matrix(1,0,0,1,40.7407,43.1217)">
        <circle cx="31.856" cy="29.123" r="2.579"/>
    </g>
    <g transform="matrix(1,0,0,1,40.7407,-1.5873)">
        <circle cx="31.856" cy="29.123" r="2.579"/>
    </g>
</svg>
