<?xml version="1.0" encoding="UTF-8" standalone="no"?>
<!DOCTYPE svg PUBLIC "-//W3C//DTD SVG 1.1//EN" "http://www.w3.org/Graphics/SVG/1.1/DTD/svg11.dtd">
<svg width="100%" height="100%" viewBox="0 0 100 100" version="1.1" xmlns="http://www.w3.org/2000/svg" xmlnsXlink="http://www.w3.org/1999/xlink" xmlSpace="preserve" xmlnsSerif="http://www.serif.com/" style="fill-rule:evenodd;clip-rule:evenodd;stroke-linejoin:round;stroke-miterlimit:2;">
    <g transform="matrix(1.46922,0,0,1.46922,-24.8251,-24.3677)">
        <rect x="20.018" y="19.841" width="61.552" height="61.552"/>
    </g>
    <g transform="matrix(1.24603,0,0,1.24603,-13.0752,-11.9994)">
        <rect x="22.31" y="21.605" width="56.305" height="56.305" style="fill:rgb(196,196,196);"/>
    </g>
    <g transform="matrix(1,0,0,1,47.3545,-0.176367)">
        <g transform="matrix(3.03584,0,0,0.366497,-108.401,-2.15052)">
            <rect x="24.339" y="6.349" width="4.938" height="13.051"/>
        </g>
        <g transform="matrix(3.03584,0,0,0.366497,-108.401,93.0663)">
            <rect x="24.339" y="6.349" width="4.938" height="13.051"/>
        </g>
        <g transform="matrix(3.03584,0,0,0.366497,-49.6771,93.0663)">
            <rect x="24.339" y="6.349" width="4.938" height="13.051"/>
        </g>
        <g transform="matrix(3.03584,0,0,0.366497,-49.6771,-2.15052)">
            <rect x="24.339" y="6.349" width="4.938" height="13.051"/>
        </g>
    </g>
    <g transform="matrix(1,0,0,1,-7.62787,-6.21693)">
        <g transform="matrix(2.07903,0,0,2.07903,-62.3796,-60.4788)">
            <circle cx="57.628" cy="56.217" r="11.949"/>
        </g>
        <g transform="matrix(1.29147,0,0,1.29147,6.79309,-13.9797)">
            <circle cx="39.209" cy="54.494" r="15.166" style="fill:rgb(178,0,0);"/>
        </g>
    </g>
    <g transform="matrix(1,0,0,1,-4.05644,-1.5873)">
        <g transform="matrix(1.28161,0,0,1.28161,-14.4384,-13.7038)">
            <circle cx="31.856" cy="29.123" r="2.579"/>
        </g>
        <g transform="matrix(1.28161,0,0,1.28161,41.0491,-13.7038)">
            <circle cx="31.856" cy="29.123" r="2.579"/>
        </g>
        <g transform="matrix(1.28161,0,0,1.28161,41.0491,41.7559)">
            <circle cx="31.856" cy="29.123" r="2.579"/>
        </g>
    </g>
    <g transform="matrix(1.28161,0,0,1.28161,-18.4948,40.1686)">
        <circle cx="31.856" cy="29.123" r="2.579"/>
    </g>
</svg>
